HIERARCHY
ROOT Pelvis
{
	OFFSET 0.000000 0.000000 0.000000
	CHANNELS 6 Xposition Yposition Zposition Xrotation Yrotation Zrotation
	JOINT LeftUpLeg_virtual
	{
		OFFSET 0.000000 0.000000 0.000000
		CHANNELS 3 Xrotation Yrotation Zrotation
		JOINT LeftUpLeg
		{
			OFFSET 8.479700 -4.795502 -0.379100
			CHANNELS 3 Xrotation Yrotation Zrotation
			JOINT LeftLeg
			{
				OFFSET 0.024144 -32.555107 0.112900
				CHANNELS 3 Xrotation Yrotation Zrotation
				JOINT LeftFoot
				{
					OFFSET -0.024144 -32.638630 -3.012600
					CHANNELS 3 Xrotation Yrotation Zrotation
					JOINT LeftToeBase
					{
						OFFSET 0.970200 -13.225400 11.864200
						CHANNELS 3 Xrotation Yrotation Zrotation
						End Site
						{
							OFFSET 0 0 0
						}
					}
				}
			}
		}
	}
	JOINT RightUpLeg_virtual
	{
		OFFSET 0.000000 0.000000 0.000000
		CHANNELS 3 Xrotation Yrotation Zrotation
		JOINT RightUpLeg
		{
			OFFSET -8.479700 -4.795502 -0.379100
			CHANNELS 3 Xrotation Yrotation Zrotation
			JOINT RightLeg
			{
				OFFSET -0.023144 -32.555092 0.112900
				CHANNELS 3 Xrotation Yrotation Zrotation
				JOINT RightFoot
				{
					OFFSET 0.023144 -32.638641 -3.012700
					CHANNELS 3 Xrotation Yrotation Zrotation
					JOINT RightToeBase
					{
						OFFSET -0.970200 -13.225400 11.864200
						CHANNELS 3 Xrotation Yrotation Zrotation
						End Site
						{
							OFFSET 0 0 0
						}
					}
				}
			}
		}
	}
	JOINT Hips_virtual
	{
		OFFSET 0.000000 0.000000 0.000000
		CHANNELS 3 Xrotation Yrotation Zrotation
		JOINT Hips
		{
			OFFSET -0.000000 -0.000000 -0.000000
			CHANNELS 3 Xrotation Yrotation Zrotation
			JOINT Spine
			{
				OFFSET 0.000000 7.722000 1.166200
				CHANNELS 3 Xrotation Yrotation Zrotation
				JOINT Spine1
				{
					OFFSET 0.000000 12.024101 0.248800
					CHANNELS 3 Xrotation Yrotation Zrotation
					JOINT Spine2
					{
						OFFSET 0.000000 11.502998 -0.491200
						CHANNELS 3 Xrotation Yrotation Zrotation
						JOINT Neck_virtual
						{
							OFFSET 0.000000 0.000000 0.000000
							CHANNELS 3 Xrotation Yrotation Zrotation
							JOINT Neck
							{
								OFFSET 0.000000 18.430702 -3.123100
								CHANNELS 3 Xrotation Yrotation Zrotation
								JOINT Head
								{
									OFFSET 0.000000 9.051102 1.034000
									CHANNELS 3 Xrotation Yrotation Zrotation
									End Site
									{
										OFFSET 0 0 0
									}
								}
							}
						}
						JOINT LeftShoulder_virtual
						{
							OFFSET 0.000000 0.000000 0.000000
							CHANNELS 3 Xrotation Yrotation Zrotation
							JOINT LeftShoulder
							{
								OFFSET 6.197800 13.665199 -4.064700
								CHANNELS 3 Xrotation Yrotation Zrotation
								JOINT LeftArm
								{
									OFFSET 7.778100 -0.187103 -1.709300
									CHANNELS 3 Xrotation Yrotation Zrotation
									JOINT LeftForeArm
									{
										OFFSET 22.049376 0.000000 0.000000
										CHANNELS 3 Xrotation Yrotation Zrotation
										JOINT LeftHand
										{
											OFFSET 23.009392 0.000000 0.000000
											CHANNELS 3 Xrotation Yrotation Zrotation
											End Site
											{
												OFFSET 0 0 0
											}
										}
									}
								}
							}
						}
						JOINT RightShoulder_virtual
						{
							OFFSET 0.000000 0.000000 0.000000
							CHANNELS 3 Xrotation Yrotation Zrotation
							JOINT RightShoulder
							{
								OFFSET -6.197800 13.665199 -4.064700
								CHANNELS 3 Xrotation Yrotation Zrotation
								JOINT RightArm
								{
									OFFSET -7.778100 -0.187103 -1.709300
									CHANNELS 3 Xrotation Yrotation Zrotation
									JOINT RightForeArm
									{
										OFFSET -22.049376 0.000000 0.000000
										CHANNELS 3 Xrotation Yrotation Zrotation
										JOINT RightHand
										{
											OFFSET -23.009392 0.000000 0.000000
											CHANNELS 3 Xrotation Yrotation Zrotation
											End Site
											{
												OFFSET 0 0 0
											}
										}
									}
								}
							}
						}
					}
				}
			}
		}
	}
}
MOTION
Frames: 8
Frame Time: 0.03333333
0.051195 33.585907 3.507484 0.000000 0.000000 0.000000 72.664941 -1.756160 -1.214728 -3.040118 11.184619 2.577456 10.161081 4.728088 1.826325 -31.386652 0.348393 -0.973606 0.000000 0.000000 0.000000 72.664941 -1.756160 -1.214728 -6.434334 -7.633634 -1.581906 14.896016 2.927212 -1.176607 -23.764777 0.034240 -0.084231 0.000000 0.000000 0.000000 72.664941 -1.756160 -1.214728 -0.000001 0.000000 0.000000 0.752270 -0.174020 0.436860 1.989892 -0.361037 0.703952 0.000000 0.000000 0.000000 1.989558 -0.369635 0.705793 -9.204231 -0.704416 3.164578 0.000000 0.000000 0.000000 1.989558 -0.369635 0.705793 1.107201 -1.022678 0.366518 -53.198151 -52.390198 -60.733789 -0.000001 -9.465317 0.000002 0.000000 0.000000 0.000000 1.989558 -0.369635 0.705793 1.721897 3.722433 14.170254 -57.852939 62.510410 58.216339 0.000002 10.622203 -0.000021 0.000000 0.000000 0.000000 
0.039064 33.620407 3.490669 0.000000 0.000000 0.000000 72.691955 -1.762681 -1.217982 -3.075681 11.173286 2.582170 10.117531 4.790848 1.834315 -31.403946 0.349539 -0.974894 0.000000 0.000000 0.000000 72.691955 -1.762681 -1.217982 -6.480007 -7.626466 -1.560746 14.878611 2.888053 -1.168097 -23.764026 0.041801 -0.112285 0.000000 0.000000 0.000000 72.691955 -1.762681 -1.217982 0.000001 0.000000 0.000000 0.763756 -0.171445 0.432795 2.014335 -0.356034 0.696149 0.000000 0.000000 0.000000 2.017245 -0.364457 0.698350 -9.222181 -0.707646 3.170100 0.000000 0.000000 0.000000 2.017245 -0.364457 0.698350 1.106204 -1.019218 0.444195 -53.325797 -52.446004 -60.786163 -0.000010 -9.373376 -0.000006 0.000000 0.000000 0.000000 2.017245 -0.364457 0.698350 1.692444 3.818572 14.166783 -57.419099 62.383062 57.737686 -0.000009 11.015425 0.000006 0.000000 0.000000 0.000000 
0.025048 33.659779 3.471954 0.000000 0.000000 0.000000 72.721400 -1.761588 -1.220236 -3.090220 11.153242 2.576361 10.017296 4.857240 1.857589 -31.393230 0.349845 -0.978875 0.000000 0.000000 0.000000 72.721400 -1.761588 -1.220236 -6.533558 -7.611822 -1.537824 14.865229 2.841004 -1.163297 -23.761089 0.048245 -0.136186 0.000000 0.000000 0.000000 72.721400 -1.761588 -1.220236 0.000001 0.000000 0.000000 0.778991 -0.169808 0.425699 2.046986 -0.353058 0.686804 0.000000 0.000000 0.000000 2.059589 -0.360989 0.690020 -9.236198 -0.710649 3.176450 0.000000 0.000000 0.000000 2.059589 -0.360989 0.690020 1.109413 -1.047178 0.617680 -53.300194 -52.427231 -60.726119 -0.000003 -9.495839 0.000003 0.000000 0.000000 0.000000 2.059589 -0.360989 0.690020 1.608455 4.068151 14.154887 -56.074784 61.951639 56.389229 -0.000002 12.166848 -0.000012 0.000000 0.000000 0.000000 
0.008957 33.703487 3.451118 0.000000 0.000000 0.000000 72.753959 -1.753905 -1.216766 -3.084107 11.122528 2.555997 9.862153 4.923474 1.894719 -31.355448 0.350600 -0.989364 0.000000 0.000000 0.000000 72.753959 -1.753905 -1.216766 -6.599486 -7.590370 -1.518500 14.862640 2.789996 -1.163801 -23.760825 0.052922 -0.153644 0.000000 0.000000 0.000000 72.753959 -1.753905 -1.216766 -0.000001 0.000000 0.000000 0.796879 -0.169427 0.415119 2.085599 -0.352767 0.674647 0.000000 0.000000 0.000000 2.114176 -0.359899 0.679518 -9.245051 -0.712871 3.181724 0.000000 0.000000 0.000000 2.114176 -0.359899 0.679518 1.118093 -1.112103 0.871085 -53.079678 -52.340337 -60.509220 0.000005 -9.849025 0.000018 0.000000 0.000000 0.000000 2.114176 -0.359899 0.679518 1.474309 4.460579 14.127445 -54.128047 61.266503 54.462624 -0.000007 13.832708 0.000006 0.000000 0.000000 0.000000 
-0.009259 33.750404 3.428650 0.000000 0.000000 0.000000 72.788431 -1.742623 -1.204316 -3.053519 11.084546 2.519702 9.650974 4.981141 1.940887 -31.291832 0.352450 -1.008741 0.000000 0.000000 0.000000 72.788431 -1.742623 -1.204316 -6.675564 -7.566682 -1.507891 14.870432 2.741985 -1.167308 -23.767095 0.055981 -0.165436 0.000000 0.000000 0.000000 72.788431 -1.742623 -1.204316 0.000000 0.000000 0.000000 0.816615 -0.170156 0.400825 2.128593 -0.354853 0.658856 0.000000 0.000000 0.000000 2.179329 -0.360895 0.666010 -9.248144 -0.714648 3.184086 0.000000 0.000000 0.000000 2.179329 -0.360895 0.666010 1.132607 -1.210562 1.194274 -52.684459 -52.210574 -60.149726 -0.000012 -10.381171 0.000018 0.000000 0.000000 0.000000 2.179329 -0.360895 0.666010 1.294705 4.985076 14.076854 -51.857323 60.370560 52.223982 0.000005 15.798719 -0.000012 0.000000 0.000000 0.000000 
-0.029729 33.800125 3.404617 0.000000 0.000000 0.000000 72.822773 -1.728821 -1.184973 -2.995195 11.046591 2.472366 9.382131 5.018509 1.990852 -31.204535 0.354400 -1.034749 0.000000 0.000000 0.000000 72.822773 -1.728821 -1.184973 -6.757339 -7.543263 -1.504413 14.886513 2.698182 -1.171047 -23.781880 0.057955 -0.173744 0.000000 0.000000 0.000000 72.822773 -1.728821 -1.184973 0.000000 0.000000 0.000000 0.838156 -0.172151 0.382904 2.176384 -0.359545 0.639455 0.000000 0.000000 0.000000 2.255305 -0.364217 0.649507 -9.247000 -0.717411 3.185097 0.000000 0.000000 0.000000 2.255305 -0.364217 0.649507 1.151590 -1.322058 1.585788 -52.222117 -52.073185 -59.742763 -0.000002 -10.975533 -0.000022 0.000000 0.000000 0.000000 2.255305 -0.364217 0.649507 1.074905 5.628872 14.003970 -49.473953 59.300932 49.871511 0.000014 17.906405 0.000014 0.000000 0.000000 0.000000 
-0.052850 33.853706 3.377523 0.000000 0.000000 0.000000 72.857737 -1.711070 -1.166004 -2.912706 11.015146 2.424794 9.055783 5.027027 2.042112 -31.098452 0.356013 -1.066223 0.000000 0.000000 0.000000 72.857737 -1.711070 -1.166004 -6.844375 -7.515689 -1.498133 14.908611 2.650060 -1.174987 -23.803932 0.059479 -0.181172 0.000000 0.000000 0.000000 72.857737 -1.711070 -1.166004 -0.000002 0.000000 0.000000 0.861903 -0.176241 0.361950 2.229977 -0.368384 0.618093 0.000000 0.000000 0.000000 2.342998 -0.371418 0.631637 -9.245379 -0.722172 3.187860 0.000000 0.000000 0.000000 2.342998 -0.371418 0.631637 1.173337 -1.417818 2.041883 -51.809857 -51.949691 -59.390366 0.000004 -11.541088 0.000006 0.000000 0.000000 0.000000 2.342998 -0.371418 0.631637 0.820156 6.380147 13.917257 -47.113474 58.088355 47.525440 0.000007 20.058008 -0.000008 0.000000 0.000000 0.000000 
-0.078953 33.913219 3.344223 0.000000 0.000000 0.000000 72.899907 -1.687456 -1.154492 -2.815861 10.990318 2.386140 8.670607 5.009081 2.096056 -30.979716 0.359301 -1.108472 0.000000 0.000000 0.000000 72.899907 -1.687456 -1.154492 -6.946630 -7.474788 -1.477738 14.939760 2.584880 -1.181937 -23.834321 0.061322 -0.190694 0.000000 0.000000 0.000000 72.899907 -1.687456 -1.154492 -0.000001 0.000000 0.000000 0.887187 -0.183228 0.339016 2.288590 -0.382877 0.597577 0.000000 0.000000 0.000000 2.441451 -0.384018 0.615194 -9.248454 -0.728278 3.192095 0.000000 0.000000 0.000000 2.441451 -0.384018 0.615194 1.197975 -1.483094 2.545709 -51.472497 -51.832158 -59.105233 -0.000007 -12.094094 0.000011 0.000000 0.000000 0.000000 2.441451 -0.384018 0.615194 0.535352 7.229614 13.822098 -44.836811 56.752383 45.234133 -0.000002 22.219039 -0.000001 0.000000 0.000000 0.000000 
